<?xml version="1.0" encoding="UTF-8" standalone="no"?>
<svg
   width="1145.4664"
   height="139.21011"
   viewBox="0 0 1145.4664 139.21011"
   fill="none"
   version="1.1"
   id="svg31"
   sodipodi:docname="logo_dark_horizontal_097s7oa.svg"
   xmlns:inkscape="http://www.inkscape.org/namespaces/inkscape"
   xmlns:sodipodi="http://sodipodi.sourceforge.net/DTD/sodipodi-0.dtd"
   xmlns="http://www.w3.org/2000/svg"
   xmlns:svg="http://www.w3.org/2000/svg">
  <defs
     id="defs31" />
  <sodipodi:namedview
     id="namedview31"
     pagecolor="#ffffff"
     bordercolor="#000000"
     borderopacity="0.25"
     inkscape:showpageshadow="2"
     inkscape:pageopacity="0.0"
     inkscape:pagecheckerboard="0"
     inkscape:deskcolor="#d1d1d1"
     showgrid="false" />
  <rect
     style="fill:#f9f9f9;stroke-width:1.1423"
     id="rect31"
     width="1145.4663"
     height="139.21011"
     x="0"
     y="0"
     ry="69.605057" />
  <g
     id="g31"
     transform="translate(62.690675,36.658759)">
    <path
       d="m 160.2,49.2 c -3.5,-2 -6.3,-4.8 -8.3,-8.3 -2,-3.5 -3,-7.4 -3,-11.7 0,-4.3 1,-8.1 3,-11.7 2,-3.5 4.8,-6.3 8.3,-8.29999 3.5,-2 7.3,-3 11.4,-3 3.2,0 6.3,0.60001 9.1,1.70001 2.8,1.1 5.2,2.79998 7,4.79998 l -3.7,3.7 c -1.4,-1.7 -3.2,-3 -5.4,-4 -2.2,-0.9 -4.5,-1.4 -7,-1.4 -3.1,0 -5.9,0.7 -8.6,2.2 -2.7,1.5 -4.8,3.6 -6.4,6.3 -1.6,2.7 -2.4,5.9 -2.4,9.4 0,3.6 0.8,6.7 2.4,9.4 1.6,2.7 3.8,4.8 6.4,6.3 2.7,1.5 5.6,2.2 8.6,2.2 2.9,0 5.4,-0.5 7.4,-1.4 2,-0.9 3.7,-2.1 5.2,-3.7 1.1,-1.1 1.9,-2.5 2.6,-4.2 0.7,-1.6 1,-3.4 1.2,-5.3 h -16.2 v -4.8 h 21.1 c 0.2,1.1 0.3,2.2 0.3,3.2 0,2.7 -0.4,5.3 -1.3,7.9 -0.9,2.6 -2.2,4.8 -4.1,6.7 -4.1,4.4 -9.5,6.6 -16.1,6.6 -4.2,0.4 -8,-0.6 -11.5,-2.6 z"
       fill="#656c73"
       id="path1" />
    <path
       d="m 204.6,50.1 c -2.4,-1.4 -4.2,-3.4 -5.6,-5.8 -1.3,-2.5 -2,-5.2 -2,-8.3 0,-3 0.7,-5.8 2,-8.3 1.3,-2.5 3.2,-4.4 5.6,-5.8 2.4,-1.4 5.1,-2.1 8,-2.1 3,0 5.7,0.7 8.1,2.1 2.4,1.4 4.3,3.4 5.6,5.8 1.3,2.5 2,5.2 2,8.3 0,3 -0.7,5.8 -2,8.3 -1.3,2.5 -3.2,4.4 -5.6,5.8 -2.4,1.4 -5.1,2.1 -8.1,2.1 -2.9,0 -5.6,-0.7 -8,-2.1 z m 13.2,-4 c 1.6,-0.9 2.9,-2.3 3.8,-4 1,-1.7 1.4,-3.8 1.4,-6 0,-2.3 -0.5,-4.3 -1.4,-6 -1,-1.7 -2.2,-3.1 -3.8,-4 -1.6,-0.9 -3.3,-1.4 -5.2,-1.4 -1.8,0 -3.5,0.5 -5.1,1.4 -1.6,0.9 -2.9,2.3 -3.8,4 -1,1.7 -1.4,3.8 -1.4,6 0,2.3 0.5,4.3 1.4,6 1,1.7 2.2,3.1 3.8,4 1.6,0.9 3.3,1.4 5.1,1.4 1.9,0 3.6,-0.5 5.2,-1.4 z"
       fill="#656c73"
       id="path2" />
    <path
       d="m 239.4,50.1 c -2.4,-1.4 -4.2,-3.4 -5.6,-5.8 -1.3,-2.5 -2,-5.2 -2,-8.3 0,-3 0.7,-5.8 2,-8.3 1.3,-2.5 3.2,-4.4 5.6,-5.8 2.4,-1.4 5.1,-2.1 8,-2.1 3,0 5.7,0.7 8.1,2.1 2.4,1.4 4.3,3.4 5.6,5.8 1.3,2.5 2,5.2 2,8.3 0,3 -0.7,5.8 -2,8.3 -1.3,2.5 -3.2,4.4 -5.6,5.8 -2.4,1.4 -5.1,2.1 -8.1,2.1 -2.9,0 -5.6,-0.7 -8,-2.1 z m 13.2,-4 c 1.6,-0.9 2.9,-2.3 3.8,-4 1,-1.7 1.4,-3.8 1.4,-6 0,-2.3 -0.5,-4.3 -1.4,-6 -1,-1.7 -2.2,-3.1 -3.8,-4 -1.6,-0.9 -3.3,-1.4 -5.2,-1.4 -1.8,0 -3.5,0.5 -5.1,1.4 -1.6,0.9 -2.9,2.3 -3.8,4 -1,1.7 -1.4,3.8 -1.4,6 0,2.3 0.5,4.3 1.4,6 1,1.7 2.2,3.1 3.8,4 1.6,0.9 3.3,1.4 5.1,1.4 1.9,0 3.6,-0.5 5.2,-1.4 z"
       fill="#656c73"
       id="path3" />
    <path
       d="M 272.8,62.8 C 270.5,61 268.9,59 268.1,56.7 l 4.8,-2 c 0.6,1.8 1.7,3.3 3.3,4.4 1.6,1.1 3.4,1.7 5.6,1.7 3.2,0 5.7,-0.9 7.5,-2.8 1.7,-1.9 2.6,-4.5 2.6,-7.9 v -3.3 h -0.2 c -1,1.6 -2.4,2.8 -4.2,3.9 -1.8,1 -3.9,1.5 -6.3,1.5 -2.6,0 -5,-0.7 -7.2,-2.1 -2.2,-1.4 -4,-3.3 -5.3,-5.8 -1.3,-2.5 -2,-5.2 -2,-8.3 0,-3.1 0.7,-5.8 2,-8.3 1.3,-2.5 3.1,-4.4 5.3,-5.8 2.2,-1.4 4.6,-2.1 7.2,-2.1 2.3,0 4.4,0.5 6.3,1.5 1.8,1 3.3,2.3 4.2,3.9 h 0.2 v -4.4 h 5 V 50 c 0,3.4 -0.7,6.2 -2,8.5 -1.3,2.3 -3.1,4.1 -5.4,5.2 -2.3,1.1 -4.8,1.7 -7.7,1.7 -3.7,0.1 -6.7,-0.8 -9,-2.6 z m 14.1,-16.7 c 1.5,-0.9 2.7,-2.2 3.7,-4 0.9,-1.7 1.4,-3.8 1.4,-6.1 0,-2.3 -0.5,-4.4 -1.4,-6.1 -0.9,-1.7 -2.1,-3.1 -3.7,-4 -1.5,-0.9 -3.2,-1.4 -5,-1.4 -1.8,0 -3.5,0.5 -5,1.4 -1.5,0.9 -2.7,2.3 -3.7,4 -0.9,1.7 -1.4,3.8 -1.4,6.1 0,2.3 0.5,4.4 1.4,6.1 0.9,1.7 2.1,3.1 3.7,4 1.5,0.9 3.2,1.4 5,1.4 1.8,0 3.5,-0.5 5,-1.4 z"
       fill="#656c73"
       id="path4" />
    <path
       d="m 309.1,7.29999 h -5.2 V 51.2 h 5.2 z"
       fill="#656c73"
       id="path5" />
    <path
       d="m 321.4,50.1 c -2.3,-1.4 -4.1,-3.3 -5.4,-5.8 -1.3,-2.5 -2,-5.2 -2,-8.3 0,-2.9 0.6,-5.7 1.8,-8.1 1.2,-2.5 3,-4.4 5.2,-5.9 2.3,-1.5 4.9,-2.2 7.8,-2.2 2.9,0 5.5,0.7 7.8,2 2.2,1.3 3.9,3.2 5.1,5.6 1.2,2.4 1.8,5.2 1.8,8.3 0,0.6 0,1 -0.1,1.2 h -24.2 c 0.1,2.3 0.6,4.2 1.7,5.8 1,1.6 2.3,2.8 3.8,3.5 1.5,0.8 3.1,1.2 4.8,1.2 3.8,0 6.8,-1.9 8.9,-5.6 L 343,44 c -1.3,2.5 -3.1,4.4 -5.4,5.9 -2.3,1.5 -5.1,2.2 -8.3,2.2 -2.9,0.1 -5.5,-0.6 -7.9,-2 z m 16.7,-17.5 c -0.1,-1.2 -0.4,-2.5 -1,-3.7 -0.6,-1.2 -1.6,-2.3 -3,-3.1 -1.4,-0.9 -3.1,-1.3 -5.2,-1.3 -2.3,0 -4.3,0.7 -6,2.2 -1.7,1.5 -2.7,3.4 -3.2,5.9 z"
       fill="#656c73"
       id="path6" />
    <path
       d="m 363.6,7.29999 h 13.3 c 4.5,0 8.4,0.89999 11.8,2.80001 3.4,1.9 5.9,4.4 7.7,7.8 1.8,3.3 2.7,7.1 2.7,11.4 0,4.3 -0.9,8.1 -2.7,11.4 -1.8,3.3 -4.4,5.9 -7.7,7.8 -3.4,1.9 -7.3,2.8 -11.8,2.8 H 363.6 Z M 376.9,46.3 c 5.2,0 9.3,-1.5 12.3,-4.5 3,-3 4.5,-7.2 4.5,-12.5 0,-5.4 -1.5,-9.5 -4.5,-12.5 -3,-3 -7.1,-4.5 -12.3,-4.5 h -8.1 v 34 z"
       fill="#656c73"
       id="path7" />
    <path
       d="m 410.9,50.1 c -2.3,-1.4 -4.1,-3.3 -5.4,-5.8 -1.3,-2.5 -2,-5.2 -2,-8.3 0,-2.9 0.6,-5.7 1.8,-8.1 1.2,-2.5 3,-4.4 5.2,-5.9 2.3,-1.5 4.9,-2.2 7.8,-2.2 2.9,0 5.5,0.7 7.8,2 2.2,1.3 3.9,3.2 5.1,5.6 1.2,2.4 1.8,5.2 1.8,8.3 0,0.6 0,1 -0.1,1.2 h -24.2 c 0.1,2.3 0.6,4.2 1.7,5.8 1,1.6 2.3,2.8 3.8,3.5 1.5,0.8 3.1,1.2 4.8,1.2 3.8,0 6.8,-1.9 8.9,-5.6 l 4.6,2.2 c -1.3,2.5 -3.1,4.4 -5.4,5.9 -2.3,1.5 -5.1,2.2 -8.3,2.2 -3,0.1 -5.6,-0.6 -7.9,-2 z m 16.7,-17.5 c -0.1,-1.2 -0.4,-2.5 -1,-3.7 -0.6,-1.2 -1.6,-2.3 -3,-3.1 -1.4,-0.9 -3.1,-1.3 -5.2,-1.3 -2.3,0 -4.3,0.7 -6,2.2 -1.7,1.5 -2.7,3.4 -3.2,5.9 z"
       fill="#656c73"
       id="path8" />
    <path
       d="m 434.3,20.8 h 5.7 l 9.3,24.3 h 0.1 l 9.5,-24.3 h 5.5 l -12.5,30.4 h -5.3 z"
       fill="#656c73"
       id="path9" />
    <path
       d="m 473.9,50.1 c -2.3,-1.4 -4.1,-3.3 -5.4,-5.8 -1.3,-2.5 -2,-5.2 -2,-8.3 0,-2.9 0.6,-5.7 1.8,-8.1 1.2,-2.5 3,-4.4 5.2,-5.9 2.3,-1.5 4.9,-2.2 7.8,-2.2 2.9,0 5.5,0.7 7.8,2 2.2,1.3 3.9,3.2 5.1,5.6 1.2,2.4 1.8,5.2 1.8,8.3 0,0.6 0,1 -0.1,1.2 h -24.2 c 0.1,2.3 0.6,4.2 1.7,5.8 1,1.6 2.3,2.8 3.8,3.5 1.5,0.8 3.1,1.2 4.8,1.2 3.8,0 6.8,-1.9 8.9,-5.6 l 4.6,2.2 c -1.3,2.5 -3.1,4.4 -5.4,5.9 -2.3,1.5 -5.1,2.2 -8.3,2.2 -2.9,0.1 -5.6,-0.6 -7.9,-2 z m 16.7,-17.5 c -0.1,-1.2 -0.4,-2.5 -1,-3.7 -0.6,-1.2 -1.6,-2.3 -3,-3.1 -1.4,-0.9 -3.1,-1.3 -5.2,-1.3 -2.3,0 -4.3,0.7 -6,2.2 -1.7,1.5 -2.7,3.4 -3.2,5.9 z"
       fill="#656c73"
       id="path10" />
    <path
       d="m 506.6,7.29999 h -5.2 V 51.2 h 5.2 z"
       fill="#656c73"
       id="path11" />
    <path
       d="m 519.1,50.1 c -2.4,-1.4 -4.2,-3.4 -5.6,-5.8 -1.3,-2.5 -2,-5.2 -2,-8.3 0,-3 0.7,-5.8 2,-8.3 1.3,-2.5 3.2,-4.4 5.6,-5.8 2.4,-1.4 5,-2.1 8,-2.1 3,0 5.7,0.7 8.1,2.1 2.4,1.4 4.3,3.4 5.6,5.8 1.3,2.5 2,5.2 2,8.3 0,3 -0.7,5.8 -2,8.3 -1.3,2.5 -3.2,4.4 -5.6,5.8 -2.4,1.4 -5.1,2.1 -8.1,2.1 -3,0 -5.6,-0.7 -8,-2.1 z m 13.2,-4 c 1.6,-0.9 2.9,-2.3 3.8,-4 1,-1.7 1.4,-3.8 1.4,-6 0,-2.3 -0.5,-4.3 -1.4,-6 -1,-1.7 -2.2,-3.1 -3.8,-4 -1.6,-0.9 -3.3,-1.4 -5.2,-1.4 -1.8,0 -3.5,0.5 -5.1,1.4 -1.6,0.9 -2.9,2.3 -3.8,4 -1,1.7 -1.4,3.8 -1.4,6 0,2.3 0.5,4.3 1.4,6 1,1.7 2.2,3.1 3.8,4 1.6,0.9 3.3,1.4 5.1,1.4 1.9,0 3.6,-0.5 5.2,-1.4 z"
       fill="#656c73"
       id="path12" />
    <path
       d="m 547.5,20.8 h 5 v 4.5 h 0.2 c 1,-1.6 2.4,-2.9 4.2,-3.9 1.8,-1 4,-1.6 6.4,-1.6 2.6,0 5,0.7 7.2,2.1 2.2,1.4 4,3.3 5.3,5.8 1.3,2.5 2,5.2 2,8.3 0,3.1 -0.7,5.8 -2,8.3 -1.3,2.5 -3.1,4.4 -5.3,5.8 -2.2,1.4 -4.6,2.1 -7.2,2.1 -2.4,0 -4.6,-0.5 -6.4,-1.6 -1.9,-1 -3.3,-2.4 -4.2,-4 h -0.2 l 0.2,4.2 v 13.6 h -5.2 z m 20.1,25.3 c 1.5,-0.9 2.8,-2.3 3.7,-4 0.9,-1.7 1.4,-3.8 1.4,-6 0,-2.3 -0.5,-4.3 -1.4,-6 -0.9,-1.7 -2.1,-3.1 -3.7,-4 -1.5,-0.9 -3.2,-1.4 -5,-1.4 -1.8,0 -3.5,0.5 -5,1.4 -1.5,0.9 -2.8,2.2 -3.7,4 -0.9,1.7 -1.4,3.8 -1.4,6.1 0,2.3 0.5,4.3 1.4,6.1 0.9,1.8 2.1,3.1 3.7,4 1.5,0.9 3.2,1.4 5,1.4 1.8,0 3.4,-0.7 5,-1.6 z"
       fill="#656c73"
       id="path13" />
    <path
       d="m 590,50.1 c -2.3,-1.4 -4.1,-3.3 -5.4,-5.8 -1.3,-2.5 -2,-5.2 -2,-8.3 0,-2.9 0.6,-5.7 1.8,-8.1 1.2,-2.5 3,-4.4 5.2,-5.9 2.3,-1.5 4.9,-2.2 7.8,-2.2 2.9,0 5.5,0.7 7.8,2 2.2,1.3 3.9,3.2 5.1,5.6 1.2,2.4 1.8,5.2 1.8,8.3 0,0.6 0,1 -0.1,1.2 h -24.2 c 0.1,2.3 0.6,4.2 1.7,5.8 1,1.6 2.3,2.8 3.8,3.5 1.5,0.8 3.1,1.2 4.8,1.2 3.8,0 6.8,-1.9 8.9,-5.6 l 4.6,2.2 c -1.3,2.5 -3.1,4.4 -5.4,5.9 -2.3,1.5 -5.1,2.2 -8.3,2.2 -2.9,0.1 -5.6,-0.6 -7.9,-2 z m 16.7,-17.5 c -0.1,-1.2 -0.4,-2.5 -1,-3.7 -0.6,-1.2 -1.6,-2.3 -3,-3.1 -1.4,-0.9 -3.1,-1.3 -5.2,-1.3 -2.3,0 -4.3,0.7 -5.9,2.2 -1.7,1.5 -2.7,3.4 -3.2,5.9 z"
       fill="#656c73"
       id="path14" />
    <path
       d="m 617.5,20.8 h 5 v 5 h 0.2 c 0.6,-1.7 1.7,-3.1 3.5,-4.2 1.8,-1.1 3.6,-1.7 5.3,-1.7 1.3,0 2.5,0.2 3.6,0.6 v 5.6 c -1.1,-0.6 -2.5,-0.9 -4.3,-0.9 -1.4,0 -2.8,0.4 -4,1.3 -1.2,0.8 -2.2,2 -3,3.4 -0.7,1.4 -1.1,2.9 -1.1,4.6 v 17 h -5.2 z"
       fill="#656c73"
       id="path15" />
    <path
       d="m 657.9,50.8 c -2.1,-0.9 -3.9,-2.3 -5.5,-4 -1.6,-1.8 -2.7,-3.9 -3.4,-6.5 l 5,-2 c 0.7,2.6 2,4.8 3.9,6.4 1.9,1.7 4.1,2.5 6.6,2.5 2.6,0 4.7,-0.7 6.5,-2.1 1.8,-1.4 2.6,-3.2 2.6,-5.6 0,-2 -0.7,-3.7 -2.2,-5.1 -1.5,-1.3 -3.9,-2.6 -7.3,-3.7 l -2.8,-1 c -3.1,-1.1 -5.6,-2.6 -7.6,-4.4 -2,-1.8 -2.9,-4.3 -2.9,-7.5 0,-2.1 0.6,-4 1.7,-5.8 1.1,-1.8 2.7,-3.19999 4.8,-4.29999 2,-1.1 4.3,-1.60003 6.8,-1.60003 2.5,0 4.8,0.50002 6.7,1.40002 1.9,0.9 3.4,2.10002 4.5,3.4 1.1,1.4 1.9,2.7 2.3,4 l -4.8,2.1 c -0.5,-1.6 -1.4,-2.9 -2.8,-4.1 -1.4,-1.2 -3.3,-1.8 -5.7,-1.8 -2.2,0 -4.2,0.6 -5.8,1.9 -1.6,1.3 -2.4,2.9 -2.4,4.8 0,1.7 0.7,3.1 2,4.2 1.3,1.1 3.4,2.1 6.1,3 l 2.8,1 c 3.7,1.3 6.6,3 8.7,5.1 2.1,2 3.2,4.8 3.2,8.3 0,2.8 -0.7,5.2 -2.2,7.1 -1.5,1.9 -3.3,3.3 -5.5,4.2 -2.2,0.9 -4.5,1.4 -6.9,1.4 -2.2,0.1 -4.3,-0.3 -6.4,-1.3 z"
       fill="#656c73"
       id="path16" />
    <path
       d="m 691.6,51.6 c -1,-0.4 -1.9,-1 -2.7,-1.7 -0.8,-0.8 -1.4,-1.7 -1.8,-2.8 -0.4,-1.1 -0.6,-2.3 -0.6,-3.8 V 25.5 h -5.4 v -4.7 h 5.4 v -9.1 h 5.2 v 9.1 h 7.5 v 4.7 h -7.5 v 16.6 c 0,1.8 0.3,3.1 1,3.9 0.7,0.9 1.8,1.4 3.2,1.4 1.3,0 2.4,-0.3 3.3,-0.9 v 5 c -0.7,0.2 -1.3,0.4 -1.9,0.5 -0.6,0.1 -1.4,0.2 -2.4,0.2 -1.2,0 -2.3,-0.2 -3.3,-0.6 z"
       fill="#656c73"
       id="path17" />
    <path
       d="m 707.3,49 c -1.9,-2.2 -2.9,-5.2 -2.9,-9 V 20.9 h 5.2 v 18.3 c 0,5.6 2.5,8.4 7.5,8.4 1.7,0 3.2,-0.5 4.5,-1.4 1.3,-0.9 2.4,-2.2 3.1,-3.7 0.7,-1.5 1.1,-3.1 1.1,-4.8 V 20.9 h 5.2 v 30.4 h -4.9 v -4.5 h -0.2 c -0.9,1.6 -2.3,2.9 -4.1,3.9 -1.8,1.1 -3.8,1.6 -5.9,1.6 -3.8,-0.1 -6.7,-1.2 -8.6,-3.3 z"
       fill="#656c73"
       id="path18" />
    <path
       d="m 743.2,50.1 c -2.2,-1.4 -4,-3.3 -5.3,-5.8 -1.3,-2.5 -2,-5.2 -2,-8.3 0,-3.1 0.7,-5.8 2,-8.3 1.3,-2.5 3.1,-4.4 5.3,-5.8 2.2,-1.4 4.6,-2.1 7.2,-2.1 2.4,0 4.5,0.5 6.4,1.6 1.9,1 3.3,2.3 4.2,3.9 h 0.2 L 761,21.1 V 7.29999 h 5.2 V 51.2 h -4.9 v -4.5 h -0.2 c -0.9,1.6 -2.4,2.9 -4.2,4 -1.9,1 -4,1.6 -6.4,1.6 -2.7,-0.1 -5.1,-0.8 -7.3,-2.2 z m 13,-4 c 1.5,-0.9 2.8,-2.3 3.7,-4 0.9,-1.8 1.4,-3.8 1.4,-6.1 0,-2.3 -0.5,-4.4 -1.4,-6.1 -0.9,-1.7 -2.1,-3.1 -3.7,-4 -1.5,-0.9 -3.2,-1.4 -5,-1.4 -1.8,0 -3.5,0.5 -5,1.4 -1.5,0.9 -2.8,2.3 -3.7,4 -0.9,1.7 -1.4,3.8 -1.4,6 0,2.3 0.5,4.3 1.4,6 0.9,1.7 2.1,3.1 3.7,4 1.5,0.9 3.2,1.4 5,1.4 1.8,0.2 3.5,-0.3 5,-1.2 z"
       fill="#656c73"
       id="path19" />
    <path
       d="m 778.6,50.1 c -2.3,-1.4 -4.1,-3.3 -5.4,-5.8 -1.3,-2.5 -2,-5.2 -2,-8.3 0,-2.9 0.6,-5.7 1.8,-8.1 1.2,-2.5 3,-4.4 5.2,-5.9 2.3,-1.5 4.9,-2.2 7.8,-2.2 2.9,0 5.5,0.7 7.8,2 2.2,1.3 3.9,3.2 5.1,5.6 1.2,2.4 1.8,5.2 1.8,8.3 0,0.6 0,1 -0.1,1.2 h -24.2 c 0.1,2.3 0.6,4.2 1.7,5.8 1,1.6 2.3,2.8 3.8,3.5 1.5,0.8 3.1,1.2 4.8,1.2 3.8,0 6.8,-1.9 8.9,-5.6 l 4.6,2.2 c -1.3,2.5 -3.1,4.4 -5.4,5.9 -2.3,1.5 -5.1,2.2 -8.3,2.2 -2.9,0.1 -5.6,-0.6 -7.9,-2 z m 16.7,-17.5 c -0.1,-1.2 -0.4,-2.5 -1,-3.7 -0.6,-1.2 -1.6,-2.3 -3,-3.1 -1.4,-0.9 -3.1,-1.3 -5.2,-1.3 -2.3,0 -4.3,0.7 -5.9,2.2 -1.7,1.5 -2.7,3.4 -3.2,5.9 z"
       fill="#656c73"
       id="path20" />
    <path
       d="m 806.1,20.8 h 5 v 4.5 h 0.2 c 0.9,-1.6 2.2,-2.9 4.1,-3.9 1.8,-1.1 3.8,-1.6 5.9,-1.6 3.7,0 6.6,1.1 8.5,3.3 1.9,2.2 2.9,5.1 2.9,8.9 v 19.3 h -5.2 V 32.8 c 0,-5.5 -2.6,-8.2 -7.7,-8.2 -1.6,0 -3.1,0.5 -4.4,1.4 -1.3,0.9 -2.3,2.2 -3,3.7 -0.7,1.5 -1.1,3.1 -1.1,4.8 v 16.8 h -5.2 z"
       fill="#656c73"
       id="path21" />
    <path
       d="m 846.2,51.6 c -1,-0.4 -1.9,-1 -2.7,-1.7 -0.8,-0.8 -1.4,-1.7 -1.8,-2.8 -0.4,-1.1 -0.6,-2.3 -0.6,-3.8 V 25.5 h -5.4 v -4.7 h 5.4 v -9.1 h 5.2 v 9.1 h 7.5 v 4.7 h -7.5 v 16.6 c 0,1.8 0.3,3.1 1,3.9 0.7,0.9 1.8,1.4 3.2,1.4 1.3,0 2.4,-0.3 3.3,-0.9 v 5 c -0.7,0.2 -1.3,0.4 -1.9,0.5 -0.6,0.1 -1.4,0.2 -2.4,0.2 -1.1,0 -2.2,-0.2 -3.3,-0.6 z"
       fill="#656c73"
       id="path22" />
    <path
       d="m 881.7,49.2 c -3.5,-2 -6.2,-4.8 -8.2,-8.3 -2,-3.5 -3,-7.4 -3,-11.7 0,-4.3 1,-8.1 3,-11.7 2,-3.5 4.7,-6.3 8.2,-8.29999 3.5,-2 7.3,-3 11.5,-3 3.3,0 6.3,0.59997 9.1,1.89997 2.7,1.2 5.1,3.00002 7,5.30002 l -3.7,3.6 c -1.6,-2 -3.5,-3.5 -5.5,-4.4 -2,-0.9 -4.3,-1.4 -6.9,-1.4 -3.1,0 -6.1,0.7 -8.7,2.2 -2.7,1.5 -4.8,3.6 -6.4,6.3 -1.6,2.7 -2.4,5.9 -2.4,9.4 0,3.6 0.8,6.7 2.4,9.4 1.6,2.7 3.7,4.8 6.4,6.3 2.7,1.5 5.6,2.2 8.7,2.2 5.4,0 9.9,-2.2 13.6,-6.6 l 3.7,3.7 c -2,2.4 -4.5,4.3 -7.5,5.7 -3,1.4 -6.3,2.1 -9.9,2.1 -4,0.3 -7.9,-0.7 -11.4,-2.7 z"
       fill="#656c73"
       id="path23" />
    <path
       d="m 920.9,7.29999 h -5.2 V 51.2 h 5.2 z"
       fill="#656c73"
       id="path24" />
    <path
       d="m 930.6,49 c -1.9,-2.2 -2.9,-5.2 -2.9,-9 V 20.9 h 5.2 v 18.3 c 0,5.6 2.5,8.4 7.5,8.4 1.7,0 3.2,-0.5 4.5,-1.4 1.3,-0.9 2.4,-2.2 3.1,-3.7 0.7,-1.5 1.1,-3.1 1.1,-4.8 V 20.9 h 5.2 v 30.4 h -4.9 v -4.5 h -0.2 c -0.9,1.6 -2.3,2.9 -4.1,3.9 -1.8,1.1 -3.8,1.6 -5.9,1.6 -3.8,-0.1 -6.6,-1.2 -8.6,-3.3 z"
       fill="#656c73"
       id="path25" />
    <path
       d="m 970.7,50.7 c -1.9,-1 -3.3,-2.4 -4.2,-4 h -0.2 v 4.5 h -5 V 7.29999 h 5.2 V 21.1 l -0.2,4.2 h 0.2 c 1,-1.6 2.4,-2.9 4.2,-3.9 1.8,-1 4,-1.6 6.4,-1.6 2.6,0 5,0.7 7.2,2.1 2.2,1.4 4,3.3 5.3,5.8 1.3,2.5 2,5.2 2,8.3 0,3.1 -0.7,5.8 -2,8.3 -1.3,2.5 -3.1,4.4 -5.3,5.8 -2.2,1.4 -4.6,2.1 -7.2,2.1 -2.4,0 -4.5,-0.5 -6.4,-1.5 z m 10.7,-4.6 c 1.5,-0.9 2.8,-2.3 3.7,-4 0.9,-1.7 1.4,-3.8 1.4,-6 0,-2.3 -0.5,-4.3 -1.4,-6 -0.9,-1.7 -2.1,-3.1 -3.7,-4 -1.5,-0.9 -3.2,-1.4 -5,-1.4 -1.8,0 -3.5,0.5 -5,1.4 -1.5,0.9 -2.8,2.2 -3.7,4 -0.9,1.7 -1.4,3.8 -1.4,6.1 0,2.3 0.5,4.3 1.4,6.1 0.9,1.8 2.1,3.1 3.7,4 1.5,0.9 3.2,1.4 5,1.4 1.8,-0.2 3.4,-0.7 5,-1.6 z"
       fill="#656c73"
       id="path26" />
    <path
       d="m 999.1,49.8 c -2.2,-1.6 -3.8,-3.7 -4.7,-6.1 l 4.6,-2 c 0.8,1.9 2,3.4 3.5,4.4 1.5,1 3.1,1.5 4.9,1.5 2,0 3.6,-0.4 4.9,-1.3 1.3,-0.9 1.9,-1.9 1.9,-3.1 0,-1.2 -0.5,-2.2 -1.4,-2.9 -1,-0.8 -2.6,-1.5 -4.9,-2 l -4.2,-1 c -2.3,-0.5 -4.2,-1.5 -5.9,-2.9 -1.6,-1.4 -2.4,-3.2 -2.4,-5.5 0,-1.9 0.5,-3.5 1.6,-4.8 1.1,-1.4 2.5,-2.4 4.3,-3.1 1.8,-0.7 3.8,-1 5.9,-1 2.6,0 5,0.6 7.1,1.8 2.1,1.2 3.7,2.9 4.6,5.1 l -4.6,2 c -0.7,-1.5 -1.6,-2.6 -3,-3.3 -1.3,-0.7 -2.8,-1 -4.4,-1 -1.6,0 -3,0.4 -4.3,1.2 -1.3,0.8 -1.9,1.8 -1.9,3 0,1.1 0.4,1.9 1.3,2.5 0.8,0.6 2.2,1.2 4,1.7 l 4.5,1.1 c 3,0.8 5.3,1.9 6.8,3.5 1.5,1.5 2.2,3.4 2.2,5.5 0,1.8 -0.5,3.4 -1.5,4.8 -1,1.4 -2.5,2.6 -4.3,3.4 -1.8,0.8 -3.9,1.2 -6.3,1.2 -3.3,-0.3 -6,-1.1 -8.3,-2.7 z"
       fill="#656c73"
       id="path27" />
    <path
       d="m 29.3999,29.9 19.7,-11.4 c 4.6,-2.7 6.2,-8.60001 3.5,-13.20001 -2.7,-4.600003 -8.6,-6.200003 -13.2,-3.5 L 5.3999,21.4 Z"
       fill="#ea4335"
       id="path28" />
    <path
       d="m 44.1999,59.1 c 3.3,0 6.6,-1.7 8.4,-4.8 2.7,-4.6 1.1,-10.5 -3.5,-13.2 l -34,-19.6 c -4.6,-2.7 -10.50003,-1.1 -13.20003,3.5 -2.699999,4.6 -1.099999,10.5 3.5,13.2 L 39.3999,57.8 c 1.5,0.9 3.2,1.3 4.8,1.3 z"
       fill="#4285f4"
       id="path29" />
    <path
       d="m 78.0001,59.1 c 1.6,0 3.3,-0.4 4.8,-1.3 L 116.8,38.2 93.1001,29.5 l -20,11.5 c -4.6,2.7 -6.2,8.6 -3.5,13.2 1.8,3.2 5.1,4.9 8.4,4.9 z"
       fill="#fbbc04"
       id="path30" />
    <path
       d="m 112,39.5 c 3.3,0 6.6,-1.7 8.4,-4.8 2.7,-4.6 1.1,-10.5 -3.5,-13.2 L 82.9002,1.89999 c -4.6,-2.700004 -10.5,-1.099974 -13.2,3.50003 C 67.0002,10 68.6002,15.9 73.2002,18.6 L 107.2,38.2 c 1.5,0.9 3.2,1.3 4.8,1.3 z"
       fill="#34a853"
       id="path31" />
  </g>
</svg>
